Coordinates
version=1
nRows=27
nColumns=38
inDegrees=no

Units are S.I. units (second, meters, Newtons, ...)
If the header above contains a line with 'inDegrees', this indicates whether rotational values are in degrees (yes) or radians (no).

endheader
time	pelvis_tilt	pelvis_list	pelvis_rotation	pelvis_tx	pelvis_ty	pelvis_tz	hip_flexion_r	hip_adduction_r	hip_rotation_r	knee_angle_r	ankle_angle_r	subtalar_angle_r	mtp_angle_r	hip_flexion_l	hip_adduction_l	hip_rotation_l	knee_angle_l	ankle_angle_l	subtalar_angle_l	mtp_angle_l	lumbar_extension	lumbar_bending	lumbar_rotation	arm_flex_r	arm_add_r	arm_rot_r	elbow_flex_r	pro_sup_r	wrist_flex_r	wrist_dev_r	arm_flex_l	arm_add_l	arm_rot_l	elbow_flex_l	pro_sup_l	wrist_flex_l	wrist_dev_l
2.7	-0.125228	0.12971	-0.0270163	0.742958	0.975738	-0.361131	-0.329998	-0.173007	-0.28574	-0.34443	0.0761308	0.0146342	-0.0415119	0.998385	-0.00418605	-0.25451	-1.41285	0.428032	0.0999999	-0.0429336	-0.14042	-0.120675	0.271356	0.121352	-0.459756	0.178495	2.26783	1.43924	0.0370778	-0.0172792	-0.849698	-0.589966	-0.336989	2.03608	1.43284	-0.00132512	-0.0204243
2.70833	-0.134117	0.133508	-0.0191114	0.744832	0.977811	-0.3617	-0.34918	-0.178529	-0.303223	-0.365024	0.0036102	0.0146342	-0.0415119	0.996281	0.00816733	-0.263069	-1.30091	0.443407	0.0999999	-0.0429336	-0.127646	-0.130045	0.280604	0.117621	-0.466537	0.223606	2.29031	1.45843	0.0370778	-0.0172792	-0.855442	-0.606995	-0.353917	2.05805	1.41498	-0.00132512	-0.0204243
2.71667	-0.141204	0.133607	-0.0120334	0.746414	0.979118	-0.361985	-0.360779	-0.178516	-0.305986	-0.405203	-0.051755	0.0146342	-0.0415119	0.987081	0.0174138	-0.270445	-1.18777	0.458928	0.0999999	-0.0429336	-0.118377	-0.135933	0.289656	0.109651	-0.472778	0.263731	2.30819	1.47472	0.0370778	-0.0172792	-0.856712	-0.623188	-0.369747	2.07846	1.40051	-0.00132512	-0.0204243
2.725	-0.145952	0.130248	-0.00549857	0.747713	0.980002	-0.362002	-0.365607	-0.173197	-0.294911	-0.464284	-0.0889326	0.0146342	-0.0415119	0.971103	0.0238682	-0.276639	-1.07563	0.473605	0.0999999	-0.0429336	-0.11306	-0.138425	0.297721	0.0975362	-0.477716	0.29776	2.32067	1.487	0.0370778	-0.0172792	-0.853787	-0.638131	-0.384711	2.09779	1.38916	-0.00132512	-0.0204243
2.73333	-0.147784	0.123936	0.000841224	0.74878	0.980468	-0.361828	-0.364844	-0.163181	-0.272716	-0.540774	-0.109291	0.0146342	-0.0415119	0.948796	0.0280425	-0.281598	-0.967034	0.486242	0.0999999	-0.0429336	-0.112113	-0.13786	0.303902	0.0815123	-0.480852	0.324951	2.32706	1.49438	0.0370778	-0.0172792	-0.847185	-0.651475	-0.399194	2.1166	1.38051	-0.00132512	-0.0204243
2.74167	-0.146161	0.11539	0.00734496	0.749659	0.980519	-0.361563	-0.359944	-0.149434	-0.243495	-0.632502	-0.11598	0.0146342	-0.0415119	0.920776	0.030555	-0.285187	-0.864797	0.495506	0.0999999	-0.0429336	-0.115861	-0.134793	0.307323	0.06196	-0.481976	0.345005	2.3269	1.49619	0.0370778	-0.0172792	-0.837578	-0.663006	-0.413674	2.13554	1.37403	-0.00132512	-0.0204243
2.75	-0.140699	0.105463	0.0143364	0.750389	0.980158	-0.361311	-0.352468	-0.133167	-0.21181	-0.736789	-0.113022	0.0146342	-0.0415119	0.887861	0.0320265	-0.287183	-0.771858	0.500025	0.0999999	-0.0429336	-0.124442	-0.129913	0.307241	0.0393775	-0.481126	0.35805	2.32	1.49212	0.0370778	-0.0172792	-0.825676	-0.672696	-0.428622	2.1552	1.3692	-0.00132512	-0.0204243
2.75833	-0.131288	0.0950408	0.0220791	0.750994	0.979381	-0.361157	-0.343838	-0.115732	-0.181905	-0.850681	-0.104359	0.0146342	-0.0415119	0.8511	0.0330203	-0.287308	-0.691073	0.498494	0.0999999	-0.0429336	-0.137717	-0.123965	0.303129	0.0143349	-0.478516	0.364536	2.30638	1.48241	0.0370778	-0.0172792	-0.81209	-0.680715	-0.444401	2.1761	1.3656	-0.00132512	-0.0204243
2.76667	-0.11817	0.084964	0.0307632	0.751491	0.978165	-0.361159	-0.335077	-0.0985359	-0.157129	-0.971244	-0.0931007	0.0146342	-0.0415119	0.811797	0.0340265	-0.28526	-0.625007	0.489813	0.0999999	-0.0429336	-0.155188	-0.117665	0.294709	-0.0125777	-0.474444	0.365083	2.28628	1.46789	0.0370778	-0.0172792	-0.797219	-0.687384	-0.461162	2.19856	1.36298	-0.00132512	-0.0204243
2.775	-0.101993	0.0759803	0.0404991	0.751885	0.976473	-0.36136	-0.326597	-0.0829868	-0.139651	-1.09582	-0.0811452	0.0146342	-0.0415119	0.771468	0.0354773	-0.28077	-0.575753	0.473328	0.0999999	-0.0429336	-0.175996	-0.111653	0.281938	-0.0407915	-0.469206	0.360323	2.26004	1.45001	0.0370778	-0.0172792	-0.781152	-0.693098	-0.47878	2.22263	1.36129	-0.00132512	-0.0204243
2.78333	-0.0837835	0.0687056	0.0513224	0.752158	0.974249	-0.361789	-0.318079	-0.0704409	-0.130409	-1.22221	-0.0691866	0.0146342	-0.0415119	0.731764	0.0377717	-0.273637	-0.544794	0.449251	0.0999999	-0.0429336	-0.198984	-0.106449	0.264967	-0.0697807	-0.463035	0.350806	2.22811	1.43071	0.0370778	-0.0172792	-0.763636	-0.698221	-0.496821	2.24808	1.36069	-0.00132512	-0.0204243
2.79167	-0.0648514	0.0636002	0.0632001	0.752272	0.971443	-0.362475	-0.30849	-0.062137	-0.129209	-1.34873	-0.0570288	0.0146342	-0.0415119	0.694341	0.0412757	-0.263765	-0.5329	0.41915	0.0999999	-0.0429336	-0.222819	-0.102443	0.244079	-0.0990655	-0.456075	0.33697	2.19095	1.41213	0.0370778	-0.0172792	-0.744088	-0.703001	-0.514555	2.27443	1.36158	-0.00132512	-0.0204243
2.8	-0.0466325	0.0609533	0.0760367	0.752164	0.968014	-0.363442	-0.296202	-0.0591074	-0.134923	-1.47417	-0.0440539	0.0146342	-0.0415119	0.660674	0.0462849	-0.251231	-0.540004	0.386308	0.0999999	-0.0429336	-0.246156	-0.0998862	0.219636	-0.128207	-0.448382	0.319173	2.14906	1.39627	0.0370778	-0.0172792	-0.721678	-0.707503	-0.531006	2.30095	1.36446	-0.00132512	-0.0204243
2.80833	-0.0305032	0.0608753	0.0896716	0.751753	0.963994	-0.364694	-0.27922	-0.0620636	-0.14571	-1.5976	-0.0296684	0.0146342	-0.0415119	0.631816	0.0529508	-0.236396	-0.565015	0.355628	0.0999999	-0.0429336	-0.267801	-0.0988933	0.192041	-0.156811	-0.439955	0.297751	2.10298	1.3847	0.0370778	-0.0172792	-0.695453	-0.711597	-0.545049	2.32682	1.3699	-0.00132512	-0.0204243
2.81667	-0.017593	0.0633005	0.10387	0.750941	0.959548	-0.366204	-0.255468	-0.0713017	-0.159302	-1.71817	-0.0135152	0.0146342	-0.0415119	0.608138	0.0612282	-0.219907	-0.605579	0.332855	0.0999999	-0.0429336	-0.28684	-0.0994558	0.161727	-0.184538	-0.430778	0.273088	2.05333	1.37836	0.0370778	-0.0172792	-0.664511	-0.714987	-0.555524	2.35114	1.37841	-0.00132512	-0.0204243
2.825	-0.00861414	0.0679864	0.118307	0.749648	0.954992	-0.367905	-0.223119	-0.0866116	-0.173268	-1.83488	0.00451611	0.0146342	-0.0415119	0.589086	0.0708426	-0.202619	-0.657898	0.323188	0.0999999	-0.0429336	-0.302728	-0.101447	0.129169	-0.21113	-0.420877	0.245668	2.00089	1.37754	0.0370778	-0.0172792	-0.628193	-0.717259	-0.561391	2.37304	1.39046	-0.00132512	-0.0204243
2.83333	-0.00373997	0.0745245	0.132559	0.747855	0.95068	-0.369703	-0.18091	-0.1072	-0.185273	-1.94641	0.0243941	0.0146342	-0.0415119	0.573066	0.0812804	-0.185404	-0.716794	0.329773	0.0999999	-0.0429336	-0.315313	-0.104603	0.0949107	-0.23644	-0.410377	0.216125	1.94666	1.38182	0.0370778	-0.0172792	-0.586271	-0.717946	-0.561883	2.39175	1.40644	-0.00132512	-0.0204243
2.84167	-0.00258368	0.0823242	0.146099	0.745617	0.946867	-0.371503	-0.128413	-0.131663	-0.193323	-2.05097	0.0460469	0.0146342	-0.0415119	0.557547	0.0917555	-0.169073	-0.776225	0.352875	0.0999999	-0.0429336	-0.324821	-0.108486	0.0595901	-0.260454	-0.399564	0.185254	1.89192	1.39001	0.0370778	-0.0172792	-0.539082	-0.716585	-0.556635	2.40665	1.42655	-0.00132512	-0.0204243
2.85	-0.00424804	0.0905949	0.158325	0.743049	0.943704	-0.373229	-0.0661709	-0.158028	-0.195986	-2.14638	0.0693697	0.0146342	-0.0415119	0.53943	0.101196	-0.154364	-0.830089	0.389963	0.0999999	-0.0429336	-0.331755	-0.112456	0.0239519	-0.283311	-0.388916	0.153974	1.83829	1.40022	0.0370778	-0.0172792	-0.487579	-0.712763	-0.545774	2.41733	1.45072	-0.00132512	-0.0204243
2.85833	-0.00750253	0.0983703	0.168619	0.740307	0.94131	-0.374824	0.00435396	-0.183936	-0.192602	-2.23017	0.0941832	0.0146342	-0.0415119	0.515584	0.10831	-0.141886	-0.873089	0.436547	0.0999999	-0.0429336	-0.336745	-0.115661	-0.011183	-0.305302	-0.379106	0.123243	1.78765	1.40992	0.0370778	-0.0172792	-0.433285	-0.706156	-0.529917	2.42363	1.47847	-0.00132512	-0.0204243
2.86667	-0.0110345	0.104575	0.176451	0.737589	0.939809	-0.37624	0.0810065	-0.206926	-0.183398	-2.29988	0.120132	0.0146342	-0.0415119	0.483446	0.111745	-0.132109	-0.901393	0.487338	0.0999999	-0.0429336	-0.340352	-0.117098	-0.045	-0.326854	-0.37095	0.093925	1.74207	1.41631	0.0370778	-0.0172792	-0.378136	-0.696566	-0.510089	2.42566	1.50878	-0.00132512	-0.0204243
2.875	-0.0137559	0.108123	0.181492	0.735114	0.939309	-0.377445	0.161298	-0.224792	-0.169488	-2.35335	0.146619	0.0146342	-0.0415119	0.441515	0.110291	-0.125385	-0.91296	0.53727	0.0999999	-0.0429336	-0.342881	-0.115723	-0.0768084	-0.348493	-0.365317	0.0666464	1.70351	1.41687	0.0370778	-0.0172792	-0.324276	-0.683949	-0.487555	2.42376	1.5402	-0.00132512	-0.0204243
2.88333	-0.0150561	0.108071	0.183708	0.733103	0.939854	-0.378442	0.242787	-0.235918	-0.152686	-2.38899	0.172774	0.0146342	-0.0415119	0.389611	0.10311	-0.121963	-0.907479	0.581992	0.0999999	-0.0429336	-0.344264	-0.110605	-0.106155	-0.370779	-0.363014	0.0416971	1.6736	1.40988	0.0370778	-0.0172792	-0.273815	-0.668444	-0.463614	2.41848	1.57103	-0.00132512	-0.0204243
2.89167	-0.0149165	0.103759	0.183379	0.731735	0.941396	-0.379284	0.323384	-0.239515	-0.135204	-2.4059	0.1976	0.0146342	-0.0415119	0.328845	0.089898	-0.12203	-0.886058	0.61796	0.0999999	-0.0429336	-0.34405	-0.101076	-0.13289	-0.394239	-0.364656	0.0189911	1.65334	1.39481	0.0370778	-0.0172792	-0.228612	-0.650394	-0.439386	2.41048	1.59957	-0.00132512	-0.0204243
2.9	-0.0138552	0.0949178	0.18104	0.731121	0.94382	-0.380045	0.401487	-0.235684	-0.119251	-2.40396	0.220146	0.0146342	-0.0415119	0.261331	0.0709613	-0.125705	-0.850786	0.642259	0.0999999	-0.0429336	-0.341528	-0.0868565	-0.157142	-0.419302	-0.370572	-0.00190219	1.64294	1.37253	0.0370778	-0.0172792	-0.190094	-0.630348	-0.415642	2.40037	1.62444	-0.00132512	-0.0204243
2.90833	-0.0127188	0.0817257	0.177337	0.73129	0.946976	-0.380788	0.475956	-0.225321	-0.106661	-2.38374	0.239702	0.0146342	-0.0415119	0.18974	0.0471606	-0.133095	-0.804336	0.652458	0.0999999	-0.0429336	-0.335964	-0.068132	-0.179214	-0.446255	-0.380733	-0.0216725	1.6418	1.34502	0.0370778	-0.0172792	-0.159133	-0.609063	-0.392712	2.38869	1.64475	-0.00132512	-0.0204243
2.91667	-0.0124048	0.0647988	0.172876	0.732203	0.950712	-0.381539	0.545968	-0.209877	-0.0986167	-2.34635	0.255911	0.0146342	-0.0415119	0.116826	0.0197781	-0.144302	-0.74969	0.646574	0.0999999	-0.0429336	-0.326856	-0.0455576	-0.199439	-0.475219	-0.394731	-0.041156	1.6486	1.31504	0.0370778	-0.0172792	-0.13599	-0.587473	-0.370476	2.37583	1.66013	-0.00132512	-0.0204243
